<?xml version="1.0" encoding="UTF-8" standalone="no"?>
<!-- Created with Inkscape (http://www.inkscape.org/) -->

<svg
   xmlns:dc="http://purl.org/dc/elements/1.1/"
   xmlns:cc="http://creativecommons.org/ns#"
   xmlns:rdf="http://www.w3.org/1999/02/22-rdf-syntax-ns#"
   xmlns:svg="http://www.w3.org/2000/svg"
   xmlns="http://www.w3.org/2000/svg"
   xmlns:sodipodi="http://sodipodi.sourceforge.net/DTD/sodipodi-0.dtd"
   xmlns:inkscape="http://www.inkscape.org/namespaces/inkscape"
   width="210mm"
   height="297mm"
   viewBox="0 0 210 297"
   version="1.1"
   id="svg3461"
   inkscape:version="0.92.2 5c3e80d, 2017-08-06"
   sodipodi:docname="e4_q5.svg">
  <sodipodi:namedview
     id="base"
     pagecolor="#ffffff"
     bordercolor="#666666"
     borderopacity="1.0"
     inkscape:pageopacity="0.0"
     inkscape:pageshadow="2"
     inkscape:zoom="1.979899"
     inkscape:cx="391.74029"
     inkscape:cy="904.89188"
     inkscape:document-units="mm"
     inkscape:current-layer="g7993"
     showgrid="false"
     inkscape:window-width="1680"
     inkscape:window-height="1005"
     inkscape:window-x="57"
     inkscape:window-y="0"
     inkscape:window-maximized="0" />
  <defs
     id="defs3455">
    <marker
       inkscape:stockid="Arrow1Lend"
       orient="auto"
       refY="0.0"
       refX="0.0"
       id="marker9109"
       style="overflow:visible;"
       inkscape:isstock="true">
      <path
         id="path9107"
         d="M 0.0,0.0 L 5.0,-5.0 L -12.5,0.0 L 5.0,5.0 L 0.0,0.0 z "
         style="fill-rule:evenodd;stroke:#000000;stroke-width:1pt;stroke-opacity:1;fill:#000000;fill-opacity:1"
         transform="scale(0.8) rotate(180) translate(12.5,0)" />
    </marker>
    <marker
       inkscape:isstock="true"
       style="overflow:visible;"
       id="marker8935"
       refX="0.0"
       refY="0.0"
       orient="auto"
       inkscape:stockid="Arrow1Lend">
      <path
         transform="scale(0.8) rotate(180) translate(12.5,0)"
         style="fill-rule:evenodd;stroke:#000000;stroke-width:1pt;stroke-opacity:1;fill:#000000;fill-opacity:1"
         d="M 0.0,0.0 L 5.0,-5.0 L -12.5,0.0 L 5.0,5.0 L 0.0,0.0 z "
         id="path8933" />
    </marker>
    <marker
       inkscape:isstock="true"
       style="overflow:visible;"
       id="marker8857"
       refX="0.0"
       refY="0.0"
       orient="auto"
       inkscape:stockid="Arrow1Lend">
      <path
         transform="scale(0.8) rotate(180) translate(12.5,0)"
         style="fill-rule:evenodd;stroke:#000000;stroke-width:1pt;stroke-opacity:1;fill:#000000;fill-opacity:1"
         d="M 0.0,0.0 L 5.0,-5.0 L -12.5,0.0 L 5.0,5.0 L 0.0,0.0 z "
         id="path8855" />
    </marker>
    <marker
       inkscape:stockid="Arrow1Lend"
       orient="auto"
       refY="0.0"
       refX="0.0"
       id="marker8151"
       style="overflow:visible;"
       inkscape:isstock="true"
       inkscape:collect="always">
      <path
         id="path8149"
         d="M 0.0,0.0 L 5.0,-5.0 L -12.5,0.0 L 5.0,5.0 L 0.0,0.0 z "
         style="fill-rule:evenodd;stroke:#000000;stroke-width:1pt;stroke-opacity:1;fill:#000000;fill-opacity:1"
         transform="scale(0.8) rotate(180) translate(12.5,0)" />
    </marker>
    <marker
       inkscape:isstock="true"
       style="overflow:visible;"
       id="marker8091"
       refX="0.0"
       refY="0.0"
       orient="auto"
       inkscape:stockid="Arrow1Lend"
       inkscape:collect="always">
      <path
         transform="scale(0.8) rotate(180) translate(12.5,0)"
         style="fill-rule:evenodd;stroke:#000000;stroke-width:1pt;stroke-opacity:1;fill:#000000;fill-opacity:1"
         d="M 0.0,0.0 L 5.0,-5.0 L -12.5,0.0 L 5.0,5.0 L 0.0,0.0 z "
         id="path8089" />
    </marker>
    <marker
       inkscape:stockid="Arrow1Lend"
       orient="auto"
       refY="0.0"
       refX="0.0"
       id="marker8031"
       style="overflow:visible;"
       inkscape:isstock="true"
       inkscape:collect="always">
      <path
         id="path8029"
         d="M 0.0,0.0 L 5.0,-5.0 L -12.5,0.0 L 5.0,5.0 L 0.0,0.0 z "
         style="fill-rule:evenodd;stroke:#000000;stroke-width:1pt;stroke-opacity:1;fill:#000000;fill-opacity:1"
         transform="scale(0.8) rotate(180) translate(12.5,0)" />
    </marker>
    <marker
       inkscape:isstock="true"
       style="overflow:visible;"
       id="marker7997"
       refX="0.0"
       refY="0.0"
       orient="auto"
       inkscape:stockid="Arrow1Lend">
      <path
         transform="scale(0.8) rotate(180) translate(12.5,0)"
         style="fill-rule:evenodd;stroke:#000000;stroke-width:1pt;stroke-opacity:1;fill:#000000;fill-opacity:1"
         d="M 0.0,0.0 L 5.0,-5.0 L -12.5,0.0 L 5.0,5.0 L 0.0,0.0 z "
         id="path7995" />
    </marker>
    <marker
       inkscape:isstock="true"
       style="overflow:visible;"
       id="marker7203"
       refX="0.0"
       refY="0.0"
       orient="auto"
       inkscape:stockid="Arrow1Lend"
       inkscape:collect="always">
      <path
         transform="scale(0.8) rotate(180) translate(12.5,0)"
         style="fill-rule:evenodd;stroke:#000000;stroke-width:1pt;stroke-opacity:1;fill:#000000;fill-opacity:1"
         d="M 0.0,0.0 L 5.0,-5.0 L -12.5,0.0 L 5.0,5.0 L 0.0,0.0 z "
         id="path7201" />
    </marker>
    <marker
       inkscape:stockid="Arrow1Lend"
       orient="auto"
       refY="0.0"
       refX="0.0"
       id="Arrow1Lend"
       style="overflow:visible;"
       inkscape:isstock="true"
       inkscape:collect="always">
      <path
         id="path1434"
         d="M 0.0,0.0 L 5.0,-5.0 L -12.5,0.0 L 5.0,5.0 L 0.0,0.0 z "
         style="fill-rule:evenodd;stroke:#000000;stroke-width:1pt;stroke-opacity:1;fill:#000000;fill-opacity:1"
         transform="scale(0.8) rotate(180) translate(12.5,0)" />
    </marker>
  </defs>
  <metadata
     id="metadata3458">
    <rdf:RDF>
      <cc:Work
         rdf:about="">
        <dc:format>image/svg+xml</dc:format>
        <dc:type
           rdf:resource="http://purl.org/dc/dcmitype/StillImage" />
        <dc:title></dc:title>
      </cc:Work>
    </rdf:RDF>
  </metadata>
  <g
     id="layer1"
     inkscape:groupmode="layer"
     inkscape:label="Layer 1">
    <path
       id="path4035"
       title="t sin(15*t)"
       d="m 71.325364,34.712035 c 0.579525,-1.431315 1.159038,-2.248477 1.73855,-1.178269 0.579513,1.070208 1.159038,3.112972 1.73855,2.942163 0.579513,-0.170809 1.159025,-2.411709 1.738551,-3.226212 0.579512,-0.814503 1.159025,0.497408 1.738537,1.887546 0.579512,1.390138 1.159038,1.667078 1.73855,0.400515 0.579513,-1.266564 1.159025,-2.99306 1.738551,-2.487126 0.579512,0.505935 1.159025,2.813597 1.738537,3.322766 0.579525,0.509168 1.159038,-1.218955 1.73855,-2.487127 0.579513,-1.26817 1.159038,-0.988795 1.738551,0.400516 0.579512,1.389311 1.159024,2.699203 1.738537,1.887546 0.579525,-0.811656 1.159038,-3.05197 1.73855,-3.226212 0.579513,-0.174243 1.159038,1.869661 1.738551,2.942163 0.579512,1.072502 1.159024,0.253046 1.73855,-1.178269 0.579512,-1.431315 1.159025,-2.248477 1.738537,-1.178269 0.579526,1.070208 1.159038,3.112972 1.73855,2.942163 0.579515,-0.170809 1.159025,-2.411709 1.738551,-3.226212 0.57951,-0.814503 1.159023,0.497408 1.738533,1.887546 0.57953,1.390138 1.15904,1.667078 1.73856,0.400515 0.57951,-1.266564 1.15903,-2.99306 1.73855,-2.487126 0.57951,0.505935 1.15903,2.813597 1.73855,3.322766 0.57951,0.509168 1.15902,-1.218955 1.73853,-2.487127 0.57951,-1.26817 1.15904,-0.988795 1.73855,0.400516 0.57951,1.389311 1.15903,2.699203 1.73855,1.887546 0.57952,-0.811656 1.15903,-3.05197 1.73854,-3.226212 0.57952,-0.174243 1.15904,1.869661 1.73855,2.942163 0.57952,1.072502 1.15904,0.253046 1.73855,-1.178269 0.57951,-1.431315 1.15903,-2.248477 1.73856,-1.178269 0.57951,1.070208 1.15902,3.112972 1.73853,2.942163 0.57951,-0.170809 1.15903,-2.411709 1.73855,-3.226212 0.57951,-0.814503 1.15903,0.497408 1.73855,1.887546 0.57952,1.390138 1.15903,1.667078 1.73854,0.400515 0.57952,-1.266564 1.15904,-2.99306 1.73855,-2.487126 0.57952,0.505935 1.15904,2.813597 1.73855,3.322766 0.57951,0.509168 1.15903,-1.218955 1.73856,-2.487127 0.57951,-1.26817 1.15902,-0.988795 1.73853,0.400516 0.57951,1.389311 1.15903,2.699203 1.73854,1.887546 0.57951,-0.811656 1.15903,-3.05197 1.73854,-3.226212 0.57953,-0.174243 1.15904,1.869661 1.73855,2.942163 0.57951,1.072502 1.15904,0.253046 1.73856,-1.178269"
       style="opacity:0.57999998;fill:none;fill-opacity:0.99523806;stroke:#000000;stroke-width:0.21444264;stroke-miterlimit:4;stroke-dasharray:none;stroke-dashoffset:0;stroke-opacity:1"
       inkscape:connector-curvature="0" />
    <g
       id="g7987">
      <path
         sodipodi:nodetypes="ccc"
         inkscape:connector-curvature="0"
         id="path4044"
         d="m 42.934842,12.025783 13.967529,11.16115 14.422993,11.525102"
         style="fill:none;stroke:#000000;stroke-width:0.14102712px;stroke-linecap:butt;stroke-linejoin:miter;stroke-opacity:1;marker-mid:url(#Arrow1Lend)" />
      <path
         style="fill:none;stroke:#000000;stroke-width:0.14102712px;stroke-linecap:butt;stroke-linejoin:miter;stroke-opacity:1;marker-mid:url(#marker7203)"
         d="M 71.325364,34.712035 56.929459,45.314914 42.06412,56.263539"
         id="path7199"
         inkscape:connector-curvature="0"
         sodipodi:nodetypes="ccc" />
    </g>
    <g
       id="g7993"
       transform="translate(67.803326)">
      <g
         id="g8071"
         transform="matrix(-1,0,0,1,142.65073,0)">
        <path
           sodipodi:nodetypes="ccc"
           inkscape:connector-curvature="0"
           id="path7989"
           d="m 42.934842,12.025783 13.967529,11.16115 14.422993,11.525102"
           style="fill:none;stroke:#000000;stroke-width:0.14102712px;stroke-linecap:butt;stroke-linejoin:miter;stroke-opacity:1;marker-mid:url(#marker7997)" />
        <path
           style="fill:none;stroke:#000000;stroke-width:0.14102712px;stroke-linecap:butt;stroke-linejoin:miter;stroke-opacity:1;marker-mid:url(#marker8031)"
           d="M 71.325364,34.712035 56.929459,45.314914 42.06412,56.263539"
           id="path7991"
           inkscape:connector-curvature="0"
           sodipodi:nodetypes="ccc" />
      </g>
      <text
         xml:space="preserve"
         style="font-style:normal;font-weight:normal;font-size:4.23333311px;line-height:1.25;font-family:sans-serif;letter-spacing:0px;word-spacing:0px;fill:#000000;fill-opacity:1;stroke:none;stroke-width:0.26458332"
         x="-16.621212"
         y="12.357953"
         id="text8075"><tspan
           sodipodi:role="line"
           id="tspan8073"
           x="-16.621212"
           y="12.357953"
           style="stroke-width:0.26458332">$e^{+}$</tspan></text>
      <text
         id="text8079"
         y="58.061043"
         x="-16.086674"
         style="font-style:normal;font-weight:normal;font-size:4.23333311px;line-height:1.25;font-family:sans-serif;letter-spacing:0px;word-spacing:0px;fill:#000000;fill-opacity:1;stroke:none;stroke-width:0.26458332"
         xml:space="preserve"><tspan
           style="stroke-width:0.26458332"
           y="58.061043"
           x="-16.086674"
           id="tspan8077"
           sodipodi:role="line">$e^{-}$</tspan></text>
      <path
         style="fill:none;stroke:#000000;stroke-width:0.16500001;stroke-linecap:butt;stroke-linejoin:miter;stroke-miterlimit:4;stroke-dasharray:none;stroke-opacity:1;marker-end:url(#marker8091)"
         d="M -21.031161,47.771165 -8.7367617,38.684"
         id="path8081"
         inkscape:connector-curvature="0" />
      <path
         inkscape:connector-curvature="0"
         id="path8147"
         d="m -21.781803,18.273894 11.9595519,9.523547"
         style="fill:none;stroke:#000000;stroke-width:0.16500001;stroke-linecap:butt;stroke-linejoin:miter;stroke-miterlimit:4;stroke-dasharray:none;stroke-opacity:1;marker-end:url(#marker8151)" />
      <text
         xml:space="preserve"
         style="font-style:normal;font-weight:normal;font-size:4.23333311px;line-height:1.25;font-family:sans-serif;letter-spacing:0px;word-spacing:0px;fill:#000000;fill-opacity:1;stroke:none;stroke-width:0.26458332"
         x="-23.837488"
         y="26.255968"
         id="text8833"><tspan
           sodipodi:role="line"
           id="tspan8831"
           x="-23.837488"
           y="26.255968"
           style="stroke-width:0.26458332">$p$</tspan></text>
      <text
         id="text8837"
         y="41.891235"
         x="-23.703854"
         style="font-style:normal;font-weight:normal;font-size:4.23333311px;line-height:1.25;font-family:sans-serif;letter-spacing:0px;word-spacing:0px;fill:#000000;fill-opacity:1;stroke:none;stroke-width:0.26458332"
         xml:space="preserve"><tspan
           style="stroke-width:0.26458332"
           y="41.891235"
           x="-23.703854"
           id="tspan8835"
           sodipodi:role="line">$p'$</tspan></text>
      <text
         id="text8841"
         y="13.694301"
         x="64.227821"
         style="font-style:normal;font-weight:normal;font-size:4.23333311px;line-height:1.25;font-family:sans-serif;letter-spacing:0px;word-spacing:0px;fill:#000000;fill-opacity:1;stroke:none;stroke-width:0.26458332"
         xml:space="preserve"><tspan
           style="stroke-width:0.26458332"
           y="13.694301"
           x="64.227821"
           id="tspan8839"
           sodipodi:role="line">$\mu^{+}$</tspan></text>
      <text
         xml:space="preserve"
         style="font-style:normal;font-weight:normal;font-size:4.23333311px;line-height:1.25;font-family:sans-serif;letter-spacing:0px;word-spacing:0px;fill:#000000;fill-opacity:1;stroke:none;stroke-width:0.26458332"
         x="28.680973"
         y="45.499374"
         id="text8845"><tspan
           sodipodi:role="line"
           id="tspan8843"
           x="28.680973"
           y="45.499374"
           style="stroke-width:0.26458332">$p+q$</tspan></text>
      <text
         xml:space="preserve"
         style="font-style:normal;font-weight:normal;font-size:4.23333311px;line-height:1.25;font-family:sans-serif;letter-spacing:0px;word-spacing:0px;fill:#000000;fill-opacity:1;stroke:none;stroke-width:0.26458332"
         x="64.76236"
         y="54.987442"
         id="text8921"><tspan
           sodipodi:role="line"
           id="tspan8919"
           x="64.76236"
           y="54.987442"
           style="stroke-width:0.26458332">$\mu^{-}$</tspan></text>
      <path
         style="fill:none;stroke:#000000;stroke-width:0.16500001;stroke-linecap:butt;stroke-linejoin:miter;stroke-miterlimit:4;stroke-dasharray:none;stroke-opacity:1;marker-end:url(#marker8935)"
         d="m 83.78966,38.853648 11.959552,9.523547"
         id="path8931"
         inkscape:connector-curvature="0" />
      <path
         inkscape:connector-curvature="0"
         id="path9105"
         d="m 85.074841,27.859585 12.2944,-9.087165"
         style="fill:none;stroke:#000000;stroke-width:0.16500001;stroke-linecap:butt;stroke-linejoin:miter;stroke-miterlimit:4;stroke-dasharray:none;stroke-opacity:1;marker-end:url(#marker9109)" />
      <text
         id="text9317"
         y="28.928663"
         x="91.489311"
         style="font-style:normal;font-weight:normal;font-size:4.23333311px;line-height:1.25;font-family:sans-serif;letter-spacing:0px;word-spacing:0px;fill:#000000;fill-opacity:1;stroke:none;stroke-width:0.26458332"
         xml:space="preserve"><tspan
           style="stroke-width:0.26458332"
           y="28.928663"
           x="91.489311"
           id="tspan9315"
           sodipodi:role="line">$q$</tspan></text>
      <text
         xml:space="preserve"
         style="font-style:normal;font-weight:normal;font-size:4.23333311px;line-height:1.25;font-family:sans-serif;letter-spacing:0px;word-spacing:0px;fill:#000000;fill-opacity:1;stroke:none;stroke-width:0.26458332"
         x="91.355675"
         y="42.024872"
         id="text9321"><tspan
           sodipodi:role="line"
           id="tspan9319"
           x="91.355675"
           y="42.024872"
           style="stroke-width:0.26458332">$q'$</tspan></text>
    </g>
    <path
       style="fill:none;stroke:#000000;stroke-width:0.165;stroke-linecap:butt;stroke-linejoin:miter;stroke-opacity:1;marker-end:url(#marker8857);stroke-miterlimit:4;stroke-dasharray:none"
       d="M 91.539813,39.218541 H 117.33132"
       id="path8847"
       inkscape:connector-curvature="0" />
  </g>
</svg>
