<?xml version="1.0" encoding="UTF-8" standalone="no"?>
<!-- Created with Inkscape (http://www.inkscape.org/) -->

<svg
   xmlns:dc="http://purl.org/dc/elements/1.1/"
   xmlns:cc="http://creativecommons.org/ns#"
   xmlns:rdf="http://www.w3.org/1999/02/22-rdf-syntax-ns#"
   xmlns:svg="http://www.w3.org/2000/svg"
   xmlns="http://www.w3.org/2000/svg"
   xmlns:sodipodi="http://sodipodi.sourceforge.net/DTD/sodipodi-0.dtd"
   xmlns:inkscape="http://www.inkscape.org/namespaces/inkscape"
   width="210mm"
   height="297mm"
   viewBox="0 0 210 297"
   version="1.1"
   id="svg3461"
   inkscape:version="0.92.2 5c3e80d, 2017-08-06"
   sodipodi:docname="e4_q4.pdf.svg">
  <sodipodi:namedview
     id="base"
     pagecolor="#ffffff"
     bordercolor="#666666"
     borderopacity="1.0"
     inkscape:pageopacity="0.0"
     inkscape:pageshadow="2"
     inkscape:zoom="1.4"
     inkscape:cx="377.21651"
     inkscape:cy="854.67738"
     inkscape:document-units="mm"
     inkscape:current-layer="layer1"
     showgrid="false"
     inkscape:window-width="1680"
     inkscape:window-height="1005"
     inkscape:window-x="19"
     inkscape:window-y="0"
     inkscape:window-maximized="0" />
  <defs
     id="defs3455">
    <marker
       inkscape:isstock="true"
       style="overflow:visible;"
       id="marker2935"
       refX="0.0"
       refY="0.0"
       orient="auto"
       inkscape:stockid="Arrow1Lend">
      <path
         transform="scale(0.8) rotate(180) translate(12.5,0)"
         style="fill-rule:evenodd;stroke:#000000;stroke-width:1pt;stroke-opacity:1;fill:#000000;fill-opacity:1"
         d="M 0.0,0.0 L 5.0,-5.0 L -12.5,0.0 L 5.0,5.0 L 0.0,0.0 z "
         id="path2933" />
    </marker>
    <marker
       inkscape:isstock="true"
       style="overflow:visible;"
       id="marker828"
       refX="0.0"
       refY="0.0"
       orient="auto"
       inkscape:stockid="Arrow1Lend">
      <path
         transform="scale(0.8) rotate(180) translate(12.5,0)"
         style="fill-rule:evenodd;stroke:#000000;stroke-width:1pt;stroke-opacity:1;fill:#000000;fill-opacity:1"
         d="M 0.0,0.0 L 5.0,-5.0 L -12.5,0.0 L 5.0,5.0 L 0.0,0.0 z "
         id="path826" />
    </marker>
    <marker
       inkscape:stockid="Arrow1Lend"
       orient="auto"
       refY="0.0"
       refX="0.0"
       id="Arrow1Lend"
       style="overflow:visible;"
       inkscape:isstock="true"
       inkscape:collect="always">
      <path
         id="path1434"
         d="M 0.0,0.0 L 5.0,-5.0 L -12.5,0.0 L 5.0,5.0 L 0.0,0.0 z "
         style="fill-rule:evenodd;stroke:#000000;stroke-width:1pt;stroke-opacity:1;fill:#000000;fill-opacity:1"
         transform="scale(0.8) rotate(180) translate(12.5,0)" />
    </marker>
  </defs>
  <metadata
     id="metadata3458">
    <rdf:RDF>
      <cc:Work
         rdf:about="">
        <dc:format>image/svg+xml</dc:format>
        <dc:type
           rdf:resource="http://purl.org/dc/dcmitype/StillImage" />
        <dc:title></dc:title>
      </cc:Work>
    </rdf:RDF>
  </metadata>
  <g
     id="layer1"
     inkscape:groupmode="layer"
     inkscape:label="Layer 1">
    <path
       id="path4035"
       title="t sin(15*t)"
       d="m 58.362165,14.380996 c 1.441533,0.302285 2.264529,0.604564 1.18668,0.906842 -1.077848,0.302279 -3.135195,0.604564 -2.963166,0.906843 0.172029,0.302278 2.428926,0.604557 3.249243,0.906842 0.820318,0.302279 -0.500959,0.604557 -1.90102,0.906836 -1.400063,0.302277 -1.67898,0.604563 -0.403375,0.906841 1.275605,0.302279 3.014427,0.604558 2.504881,0.906844 -0.509547,0.302278 -2.833683,0.604556 -3.346486,0.906835 -0.512804,0.302285 1.227657,0.604564 2.504882,0.906842 1.277223,0.302279 0.995854,0.604564 -0.403375,0.906843 -1.39923,0.302278 -2.718472,0.604556 -1.901021,0.906835 0.81745,0.302285 3.073757,0.604564 3.249243,0.906843 0.175487,0.302278 -1.883008,0.604563 -2.963167,0.906842 -1.080158,0.302279 -0.254852,0.604557 1.186681,0.906843 1.441533,0.302278 2.264529,0.604556 1.18668,0.906835 -1.077848,0.302285 -3.135195,0.604564 -2.963166,0.906842 0.172029,0.30228 2.428926,0.604558 3.249243,0.906843 0.820318,0.302277 -0.500959,0.604558 -1.90102,0.906835 -1.400063,0.302285 -1.67898,0.604564 -0.403375,0.906844 1.275605,0.302277 3.014427,0.604563 2.504881,0.906844 -0.509547,0.302276 -2.833683,0.604557 -3.346486,0.906841 -0.512804,0.30228 1.227657,0.604554 2.504882,0.906834 1.277223,0.302277 0.995854,0.604563 -0.403375,0.906844 -1.39923,0.302277 -2.718472,0.604555 -1.901021,0.906841 0.81745,0.30228 3.073757,0.604557 3.249243,0.906838 0.175487,0.302282 -1.883008,0.604562 -2.963167,0.906841 -1.080158,0.30228 -0.254852,0.604563 1.186681,0.906843 1.441533,0.302278 2.264529,0.604558 1.18668,0.906844 -1.077848,0.302277 -3.135195,0.604554 -2.963166,0.906832 0.172029,0.302277 2.428926,0.604563 3.249243,0.906843 0.820318,0.302276 -0.500959,0.604558 -1.90102,0.906841 -1.400063,0.302283 -1.67898,0.60456 -0.403375,0.906837 1.275605,0.302283 3.014427,0.604565 2.504881,0.906843 -0.509547,0.302281 -2.833683,0.604565 -3.346486,0.906841 -0.512804,0.302278 1.227657,0.60456 2.504882,0.906849 1.277223,0.302276 0.995854,0.604553 -0.403375,0.906831 -1.39923,0.302277 -2.718472,0.60456 -1.901021,0.906837 0.81745,0.302277 3.073757,0.60456 3.249243,0.906837 0.175487,0.302288 -1.883008,0.604565 -2.963167,0.906842 -1.080158,0.302278 -0.254852,0.604565 1.186681,0.906848"
       style="opacity:0.57999998;fill:none;fill-opacity:0.99523806;stroke:#000000;stroke-width:0.15542759;stroke-miterlimit:4;stroke-dasharray:none;stroke-dashoffset:0;stroke-opacity:1"
       inkscape:connector-curvature="0" />
    <path
       style="fill:none;stroke:#000000;stroke-width:0.16177581px;stroke-linecap:butt;stroke-linejoin:miter;stroke-opacity:1;marker-mid:url(#Arrow1Lend)"
       d="M 23.914591,75.138361 40.864803,62.639264 58.36774,49.732588"
       id="path4044"
       inkscape:connector-curvature="0"
       sodipodi:nodetypes="ccc" />
    <path
       sodipodi:nodetypes="ccc"
       inkscape:connector-curvature="0"
       id="path824"
       d="M 58.362165,49.747777 75.531178,61.944583 93.26005,74.539112"
       style="fill:none;stroke:#000000;stroke-width:0.16177581px;stroke-linecap:butt;stroke-linejoin:miter;stroke-opacity:1;marker-mid:url(#marker828)" />
    <path
       inkscape:connector-curvature="0"
       style="opacity:0.57999998;fill:none;fill-opacity:0.99523806;stroke:#000000;stroke-width:0.15542759;stroke-miterlimit:4;stroke-dasharray:none;stroke-dashoffset:0;stroke-opacity:1"
       d="m 123.62899,21.855885 c 1.31093,-0.671472 2.14092,-0.953975 1.49294,-0.04114 -0.64797,0.912826 -2.05753,2.44162 -1.73368,2.568468 0.32385,0.12685 2.26873,-1.057356 3.09665,-1.338176 0.8279,-0.280827 -0.009,0.785089 -0.90785,1.900542 -0.8985,1.115452 -0.92527,1.525886 0.25663,0.958755 1.1819,-0.567124 2.72397,-1.425544 2.51788,-0.870085 -0.2061,0.555458 -1.82311,2.252016 -2.03173,2.809517 -0.20863,0.557509 1.33471,-0.301941 2.51788,-0.870087 1.18317,-0.56815 1.15449,-0.156176 0.25663,0.958757 -0.89786,1.114931 -1.73352,2.17956 -0.90785,1.900541 0.82569,-0.279015 2.77011,-1.462851 3.09665,-1.338175 0.32654,0.124672 -1.08392,1.654189 -1.73369,2.568475 -0.64977,0.914285 0.18197,0.630334 1.49294,-0.04114 1.31093,-0.671477 2.14091,-0.953981 1.49294,-0.04115 -0.64796,0.912832 -2.05752,2.44162 -1.73368,2.56847 0.32384,0.126851 2.26873,-1.057356 3.09664,-1.338176 0.82792,-0.280829 -0.009,0.785088 -0.90783,1.900539 -0.8985,1.115459 -0.92528,1.525887 0.25663,0.958758 1.1819,-0.567128 2.72398,-1.425541 2.51788,-0.870087 -0.2061,0.555456 -1.8231,2.252016 -2.03172,2.809522 -0.20863,0.557505 1.33471,-0.30195 2.51787,-0.870094 1.18317,-0.568152 1.15449,-0.156176 0.25663,0.958757 -0.89785,1.114929 -1.73352,2.17956 -0.90783,1.900545 0.82567,-0.279013 2.7701,-1.462855 3.09664,-1.33818 0.32654,0.124677 -1.08392,1.654188 -1.73369,2.568475 -0.64976,0.914285 0.18198,0.630338 1.49295,-0.04114 1.31092,-0.671477 2.14091,-0.953979 1.49294,-0.04114 -0.64796,0.912823 -2.05753,2.44161 -1.73369,2.56846 0.32385,0.126849 2.26874,-1.057351 3.09665,-1.338175 0.82791,-0.280829 -0.009,0.785088 -0.90783,1.900545 -0.8985,1.115457 -0.92529,1.525885 0.25662,0.958751 1.18191,-0.567123 2.72398,-1.42554 2.51789,-0.870089 -0.2061,0.555462 -1.8231,2.252024 -2.03174,2.809525 -0.20863,0.557503 1.33473,-0.301948 2.51789,-0.870083 1.18317,-0.568152 1.15449,-0.156186 0.25663,0.958745 -0.89786,1.114932 -1.73352,2.179565 -0.90784,1.900542 0.82568,-0.279022 2.77011,-1.462852 3.09664,-1.338178 0.32654,0.124682 -1.08392,1.654191 -1.73369,2.568473 -0.64977,0.914286 0.18198,0.63034 1.49294,-0.04114"
       title="t sin(15*t)"
       id="path830" />
    <path
       sodipodi:nodetypes="ccc"
       inkscape:connector-curvature="0"
       id="path832"
       d="M 111.41608,74.760385 128.36629,62.261288 145.86923,49.354612"
       style="fill:none;stroke:#000000;stroke-width:0.16177581px;stroke-linecap:butt;stroke-linejoin:miter;stroke-opacity:1;marker-mid:url(#Arrow1Lend)" />
    <path
       style="fill:none;stroke:#000000;stroke-width:0.16177581px;stroke-linecap:butt;stroke-linejoin:miter;stroke-opacity:1;marker-mid:url(#marker828)"
       d="m 145.86365,49.369801 17.16902,12.196806 17.72887,12.594529"
       id="path834"
       inkscape:connector-curvature="0"
       sodipodi:nodetypes="ccc" />
    <path
       id="path836"
       title="t sin(15*t)"
       d="m 165.14639,19.722128 c 1.04362,1.03936 1.56871,1.741474 0.50035,1.4072 -1.06836,-0.334268 -2.95783,-1.202575 -2.97842,-0.855379 -0.0206,0.347197 1.70652,1.831093 2.22938,2.531758 0.52286,0.700644 -0.74946,0.233983 -2.08804,-0.276293 -1.33847,-0.509944 -1.73709,-0.408606 -0.83257,0.540271 0.90451,0.948879 2.19734,2.150317 1.60539,2.125911 -0.59196,-0.02442 -2.70508,-1.038198 -3.29976,-1.06438 -0.59469,-0.02619 0.69951,1.176138 1.60539,2.12591 0.90588,0.94977 0.5052,1.049766 -0.83258,0.540271 -1.33777,-0.509496 -2.60849,-0.975374 -2.08804,-0.276293 0.52046,0.699101 2.24708,2.182675 2.22939,2.531758 -0.0177,0.349083 -1.90814,-0.519857 -2.97844,-0.855386 -1.07029,-0.335528 -0.54328,0.367802 0.50036,1.4072 1.04362,1.039359 1.56872,1.741462 0.50036,1.407196 -1.06836,-0.334256 -2.95783,-1.202565 -2.97843,-0.855378 -0.0206,0.347188 1.70653,1.831094 2.22938,2.531749 0.52287,0.700662 -0.74946,0.233983 -2.08803,-0.276275 -1.33847,-0.509941 -1.73709,-0.408615 -0.83257,0.540272 0.90452,0.948878 2.19734,2.150328 1.60539,2.12591 -0.59196,-0.02442 -2.70508,-1.038188 -3.29976,-1.064369 -0.59469,-0.02619 0.69952,1.176136 1.60539,2.125898 0.90589,0.94977 0.5052,1.049767 -0.83257,0.540272 -1.33777,-0.509487 -2.60849,-0.975375 -2.08804,-0.276273 0.52044,0.699083 2.24708,2.182664 2.22938,2.531747 -0.0177,0.349084 -1.90813,-0.519858 -2.97843,-0.855386 -1.07029,-0.335519 -0.54328,0.367813 0.50036,1.407209 1.04362,1.03935 1.56872,1.741463 0.50035,1.4072 -1.06835,-0.334259 -2.95782,-1.202578 -2.97842,-0.855391 -0.0206,0.347197 1.70653,1.831105 2.22938,2.531759 0.52287,0.700652 -0.74946,0.233982 -2.08803,-0.276273 -1.33847,-0.509942 -1.7371,-0.408626 -0.83257,0.54026 0.90451,0.948889 2.19734,2.150328 1.60539,2.125919 -0.59196,-0.02442 -2.70508,-1.038186 -3.29977,-1.064387 -0.59468,-0.02619 0.69953,1.176155 1.60539,2.12592 0.90588,0.94977 0.50521,1.049764 -0.83256,0.540268 -1.33778,-0.509495 -2.6085,-0.975373 -2.08804,-0.276283 0.52046,0.69909 2.24708,2.182674 2.22938,2.531748 -0.0177,0.349085 -1.90813,-0.519857 -2.97843,-0.855387 -1.0703,-0.335528 -0.54328,0.367813 0.50035,1.4072"
       style="opacity:0.57999998;fill:none;fill-opacity:0.99523806;stroke:#000000;stroke-width:0.15542759;stroke-miterlimit:4;stroke-dasharray:none;stroke-dashoffset:0;stroke-opacity:1"
       inkscape:connector-curvature="0" />
    <text
       xml:space="preserve"
       style="font-style:normal;font-weight:normal;font-size:4.23333311px;line-height:1.25;font-family:sans-serif;letter-spacing:0px;word-spacing:0px;fill:#000000;fill-opacity:1;stroke:none;stroke-width:0.26458332"
       x="34.017857"
       y="57.174103"
       id="text4599"><tspan
         sodipodi:role="line"
         id="tspan4597"
         x="34.017857"
         y="57.174103"
         style="stroke-width:0.26458332">$p$</tspan></text>
    <text
       id="text4603"
       y="57.174103"
       x="76.162201"
       style="font-style:normal;font-weight:normal;font-size:4.23333311px;line-height:1.25;font-family:sans-serif;letter-spacing:0px;word-spacing:0px;fill:#000000;fill-opacity:1;stroke:none;stroke-width:0.26458332"
       xml:space="preserve"><tspan
         style="stroke-width:0.26458332"
         y="57.174103"
         x="76.162201"
         id="tspan4601"
         sodipodi:role="line">$q$</tspan></text>
  </g>
</svg>
