<?xml version="1.0" encoding="UTF-8" standalone="no"?>
<!-- Created with Inkscape (http://www.inkscape.org/) -->

<svg
   xmlns:dc="http://purl.org/dc/elements/1.1/"
   xmlns:cc="http://creativecommons.org/ns#"
   xmlns:rdf="http://www.w3.org/1999/02/22-rdf-syntax-ns#"
   xmlns:svg="http://www.w3.org/2000/svg"
   xmlns="http://www.w3.org/2000/svg"
   xmlns:sodipodi="http://sodipodi.sourceforge.net/DTD/sodipodi-0.dtd"
   xmlns:inkscape="http://www.inkscape.org/namespaces/inkscape"
   width="210mm"
   height="297mm"
   viewBox="0 0 210 297"
   version="1.1"
   id="svg8"
   inkscape:version="0.92.2 5c3e80d, 2017-08-06"
   sodipodi:docname="sp-cylinder-2.pdf.svg">
  <defs
     id="defs2">
    <inkscape:path-effect
       effect="bspline"
       id="path-effect1429"
       is_visible="true"
       weight="33.333333"
       steps="2"
       helper_size="0"
       apply_no_weight="true"
       apply_with_weight="true"
       only_selected="false" />
    <inkscape:path-effect
       effect="bspline"
       id="path-effect1425"
       is_visible="true"
       weight="33.333333"
       steps="2"
       helper_size="0"
       apply_no_weight="true"
       apply_with_weight="true"
       only_selected="false" />
    <inkscape:path-effect
       effect="bspline"
       id="path-effect1421"
       is_visible="true"
       weight="33.333333"
       steps="2"
       helper_size="0"
       apply_no_weight="true"
       apply_with_weight="true"
       only_selected="false" />
    <inkscape:path-effect
       effect="bspline"
       id="path-effect1417"
       is_visible="true"
       weight="33.333333"
       steps="2"
       helper_size="0"
       apply_no_weight="true"
       apply_with_weight="true"
       only_selected="false" />
    <inkscape:path-effect
       effect="bspline"
       id="path-effect1413"
       is_visible="true"
       weight="33.333333"
       steps="2"
       helper_size="0"
       apply_no_weight="true"
       apply_with_weight="true"
       only_selected="false" />
    <inkscape:path-effect
       effect="bspline"
       id="path-effect1409"
       is_visible="true"
       weight="33.333333"
       steps="2"
       helper_size="0"
       apply_no_weight="true"
       apply_with_weight="true"
       only_selected="false" />
    <inkscape:path-effect
       effect="bspline"
       id="path-effect1399"
       is_visible="true"
       weight="33.333333"
       steps="2"
       helper_size="0"
       apply_no_weight="true"
       apply_with_weight="true"
       only_selected="false" />
    <inkscape:path-effect
       effect="bspline"
       id="path-effect1395"
       is_visible="true"
       weight="33.333333"
       steps="2"
       helper_size="0"
       apply_no_weight="true"
       apply_with_weight="true"
       only_selected="false" />
    <inkscape:path-effect
       effect="bspline"
       id="path-effect1391"
       is_visible="true"
       weight="33.333333"
       steps="2"
       helper_size="0"
       apply_no_weight="true"
       apply_with_weight="true"
       only_selected="false" />
    <inkscape:path-effect
       effect="bspline"
       id="path-effect1387"
       is_visible="true"
       weight="33.333333"
       steps="2"
       helper_size="0"
       apply_no_weight="true"
       apply_with_weight="true"
       only_selected="false" />
    <inkscape:path-effect
       effect="spiro"
       id="path-effect1383"
       is_visible="true" />
    <marker
       inkscape:stockid="Arrow1Lend"
       orient="auto"
       refY="0.0"
       refX="0.0"
       id="Arrow1Lend"
       style="overflow:visible;"
       inkscape:isstock="true">
      <path
         id="path880"
         d="M 0.0,0.0 L 5.0,-5.0 L -12.5,0.0 L 5.0,5.0 L 0.0,0.0 z "
         style="fill-rule:evenodd;stroke:#000000;stroke-width:1pt;stroke-opacity:1;fill:#000000;fill-opacity:1"
         transform="scale(0.8) rotate(180) translate(12.5,0)" />
    </marker>
  </defs>
  <sodipodi:namedview
     id="base"
     pagecolor="#ffffff"
     bordercolor="#666666"
     borderopacity="1.0"
     inkscape:pageopacity="0.0"
     inkscape:pageshadow="2"
     inkscape:zoom="2.5986174"
     inkscape:cx="193.61431"
     inkscape:cy="974.72295"
     inkscape:document-units="mm"
     inkscape:current-layer="g1375"
     showgrid="false"
     inkscape:window-width="1680"
     inkscape:window-height="1005"
     inkscape:window-x="3"
     inkscape:window-y="0"
     inkscape:window-maximized="0" />
  <metadata
     id="metadata5">
    <rdf:RDF>
      <cc:Work
         rdf:about="">
        <dc:format>image/svg+xml</dc:format>
        <dc:type
           rdf:resource="http://purl.org/dc/dcmitype/StillImage" />
        <dc:title></dc:title>
      </cc:Work>
    </rdf:RDF>
  </metadata>
  <g
     inkscape:label="Layer 1"
     inkscape:groupmode="layer"
     id="layer1">
    <g
       id="g1375"
       transform="matrix(1.7595614,0,0,1.7595614,-17.534887,-16.154874)">
      <g
         id="g1405">
        <path
           inkscape:original-d="m 23.468002,34.110102 c 2.536986,-1.118541 5.073822,-2.182376 7.610508,-3.273337 0.736598,-1.391219 1.473152,-2.782487 2.209502,-4.173504"
           inkscape:path-effect="#path-effect1387"
           inkscape:connector-curvature="0"
           id="path1385"
           d="m 23.468002,34.110102 c 2.546918,-1.095449 5.073854,-2.182303 6.710452,-3.423444 1.636599,-1.241141 2.373153,-2.632409 3.109558,-4.023397"
           style="fill:none;stroke:#000000;stroke-width:0.15036891px;stroke-linecap:butt;stroke-linejoin:miter;stroke-opacity:1" />
        <path
           inkscape:original-d="m 33.288012,26.663261 c 5.1011,0.654517 10.202051,1.309184 15.30285,1.964001 0.76391,0.681779 1.473152,1.363741 2.209503,2.045835"
           inkscape:path-effect="#path-effect1391"
           inkscape:connector-curvature="0"
           id="path1389"
           d="m 33.288012,26.663261 c 5.101079,0.654684 10.20203,1.309351 13.128028,1.984442 2.925997,0.675091 3.64783,1.343455 4.384325,2.025394"
           style="fill:none;stroke:#000000;stroke-width:0.15036891px;stroke-linecap:butt;stroke-linejoin:miter;stroke-opacity:1" />
        <path
           inkscape:original-d="m 50.800365,30.673097 c -1.909296,2.072964 -3.818744,4.146077 -5.72834,6.219341 0.08199,0.545447 0.163818,1.145518 0.2455,1.718502"
           inkscape:path-effect="#path-effect1395"
           inkscape:connector-curvature="0"
           id="path1393"
           d="m 50.800365,30.673097 c -1.909303,2.072958 -3.81875,4.146072 -4.734544,5.455715 -0.915794,1.309643 -0.830147,1.909168 -0.748296,2.482128"
           style="fill:none;stroke:#000000;stroke-width:0.15036891px;stroke-linecap:butt;stroke-linejoin:miter;stroke-opacity:1" />
        <path
           inkscape:original-d="m 23.468002,34.110102 c 6.028545,0.763628 12.056941,1.527407 18.085186,2.291335 1.254902,0.736336 2.509708,1.472852 3.764337,2.209503"
           inkscape:path-effect="#path-effect1399"
           inkscape:connector-curvature="0"
           id="path1397"
           d="m 23.468002,34.110102 c 6.028524,0.763795 12.05692,1.527573 15.698452,2.27771 3.641532,0.750137 4.896338,1.486654 6.151071,2.223128"
           style="fill:none;stroke:#000000;stroke-width:0.15036891px;stroke-linecap:butt;stroke-linejoin:miter;stroke-opacity:1" />
      </g>
      <path
         style="fill:none;stroke:#000000;stroke-width:0.15036891px;stroke-linecap:butt;stroke-linejoin:miter;stroke-opacity:1"
         d="m 21.831333,18.398085 c 2.956309,-1.313915 5.892188,-2.61875 8.142543,-3.273377 2.250356,-0.654627 3.805288,-0.654627 5.359971,-0.654627"
         id="path1407"
         inkscape:connector-curvature="0"
         inkscape:path-effect="#path-effect1409"
         inkscape:original-d="m 21.831333,18.398085 c 2.946154,-1.336763 5.892157,-2.618819 8.838009,-3.928004 1.55489,0.02713 3.109822,-1.5e-4 4.664505,0" />
      <path
         style="fill:none;stroke:#000000;stroke-width:0.15036891px;stroke-linecap:butt;stroke-linejoin:miter;stroke-opacity:1"
         d="m 35.333847,14.470081 c 4.942751,1.010397 9.87468,2.018581 12.649986,2.899639 2.775305,0.881058 3.362073,1.601182 3.962199,2.3377"
         id="path1411"
         inkscape:connector-curvature="0"
         inkscape:path-effect="#path-effect1413"
         inkscape:original-d="m 35.333847,14.470081 c 4.937434,1.036406 9.874716,2.018407 14.811849,3.027837 0.600249,0.76361 1.200374,1.472851 1.800336,2.209502" />
      <path
         style="fill:none;stroke:#000000;stroke-width:0.15036891px;stroke-linecap:butt;stroke-linejoin:miter;stroke-opacity:1"
         d="m 21.831333,18.398085 c 4.637341,0.954747 9.274569,1.90947 12.575176,2.400459 3.300607,0.490989 5.264658,0.518266 7.228511,0.545541"
         id="path1415"
         inkscape:connector-curvature="0"
         inkscape:path-effect="#path-effect1417"
         inkscape:original-d="m 21.831333,18.398085 c 4.637377,0.954573 9.274605,1.909296 13.911682,2.86417 1.964103,0.02713 3.928154,0.0544 5.892005,0.08183" />
      <path
         style="fill:none;stroke:#000000;stroke-width:0.15036891px;stroke-linecap:butt;stroke-linejoin:miter;stroke-opacity:1"
         d="m 41.635019,21.344085 c 3.437175,-0.545582 6.874178,-1.091137 10.311013,-1.636665"
         id="path1419"
         inkscape:connector-curvature="0"
         inkscape:path-effect="#path-effect1421"
         inkscape:original-d="m 41.635019,21.344085 c 3.437155,-0.545706 6.874158,-1.09126 10.311013,-1.636665" />
      <path
         style="fill:none;stroke:#000000;stroke-width:0.15036891px;stroke-linecap:butt;stroke-linejoin:miter;stroke-opacity:1"
         d="m 35.824848,18.316252 c 0.354593,2.427599 0.709205,4.855324 0.507369,7.206702 -0.201836,2.351379 -0.971032,4.658963 -1.734871,6.95048"
         id="path1423"
         inkscape:connector-curvature="0"
         inkscape:path-effect="#path-effect1425"
         inkscape:original-d="m 35.824848,18.316252 c 0.354763,2.427574 0.709373,4.855299 1.063835,7.283174 -0.790947,2.264025 -1.527407,4.582521 -2.291337,6.874008" />
      <path
         style="fill:none;stroke:#000000;stroke-width:0.15036891px;stroke-linecap:butt;stroke-linejoin:miter;stroke-opacity:1"
         d="m 44.49919,18.725419 c -0.354587,2.427556 -0.709198,4.855281 -0.492428,7.210723 0.21677,2.355442 1.010677,4.655035 1.801764,6.946459"
         id="path1427"
         inkscape:connector-curvature="0"
         inkscape:path-effect="#path-effect1429"
         inkscape:original-d="m 44.49919,18.725419 c -0.35446,2.427575 -0.709072,4.855299 -1.063834,7.283174 0.763982,2.291344 1.582264,4.582522 2.37317,6.874008" />
      <ellipse
         style="opacity:1;fill:none;fill-opacity:1;stroke:#000000;stroke-width:0.15003739;stroke-miterlimit:4;stroke-dasharray:none;stroke-dashoffset:0;stroke-opacity:1"
         id="path1431"
         cx="40.121101"
         cy="18.561752"
         rx="4.2965946"
         ry="1.7188416" />
      <ellipse
         style="opacity:1;fill:none;fill-opacity:1;stroke:#ee0000;stroke-width:0.15003739;stroke-miterlimit:4;stroke-dasharray:none;stroke-dashoffset:0;stroke-opacity:1"
         id="path1441"
         cx="40.039268"
         cy="32.678017"
         rx="5.5237565"
         ry="1.1047511" />
      <text
         xml:space="preserve"
         style="font-style:normal;font-weight:normal;font-size:1.20295131px;line-height:1.25;font-family:sans-serif;letter-spacing:0px;word-spacing:0px;fill:#000000;fill-opacity:1;stroke:none;stroke-width:0.15036891"
         x="40.407516"
         y="18.807251"
         id="text1491"><tspan
           sodipodi:role="line"
           id="tspan1489"
           x="40.407516"
           y="18.807251"
           style="stroke-width:0.15036891">$\Sigma_ 2$</tspan></text>
      <text
         id="text1495"
         y="32.964432"
         x="39.671017"
         style="font-style:normal;font-weight:normal;font-size:1.20295131px;line-height:1.25;font-family:sans-serif;letter-spacing:0px;word-spacing:0px;fill:#000000;fill-opacity:1;stroke:none;stroke-width:0.15036891"
         xml:space="preserve"><tspan
           style="stroke-width:0.15036891"
           y="32.964432"
           x="39.671017"
           id="tspan1493"
           sodipodi:role="line">$\Sigma_ 1$</tspan></text>
      <path
         style="opacity:0.158;fill:#0000ff;fill-opacity:1;stroke:#ff00ff;stroke-width:0.3839716;stroke-miterlimit:4;stroke-dasharray:none;stroke-dashoffset:0;stroke-opacity:1"
         d="m 221.39831,124.7945 c -7.0699,-1.19054 -29.26268,-4.4052 -39.63646,-5.7414 -3.70389,-0.47708 -6.77746,-0.89485 -6.83016,-0.92837 -0.0527,-0.0335 0.16942,-1.86498 0.49359,-4.0699 1.16335,-7.91293 1.13323,-23.188531 -0.0645,-32.702964 l -0.22113,-1.756625 4.75416,0.481724 c 7.86116,0.796543 17.58433,1.300029 25.03855,1.296547 5.94759,-0.0028 8.16439,-0.182758 14.31,-1.161811 3.99969,-0.637187 7.33084,-1.099844 7.40256,-1.028125 0.0717,0.07172 -0.15872,2.802439 -0.51208,6.068266 -0.80582,7.447533 -0.90169,23.571978 -0.17144,28.834658 0.279,2.01069 0.84828,5.44973 1.26507,7.64232 0.41678,2.19259 0.7046,4.01991 0.63957,4.06072 -0.065,0.0408 -2.97551,-0.40696 -6.46775,-0.99504 z"
         id="path1497"
         inkscape:connector-curvature="0"
         transform="matrix(0.15036891,0,0,0.15036891,9.9654874,9.1811937)" />
      <path
         style="opacity:0.15800003;fill:#0000ff;fill-opacity:1;stroke:#ff00ff;stroke-width:0.3839716;stroke-miterlimit:4;stroke-dasharray:none;stroke-dashoffset:0;stroke-opacity:1"
         d="m 234.09737,152.88516 c -6.42834,-3.1591 -20.52755,-4.80574 -37.88289,-4.4243 -13.46811,0.296 -21.036,1.21439 -27.53651,3.34164 -1.79903,0.58873 -3.30621,1.03884 -3.34927,1.00025 -0.0431,-0.0386 0.87851,-3.00766 2.04794,-6.59794 2.74421,-8.425 4.79511,-15.7077 6.11895,-21.72817 0.58174,-2.64564 1.10127,-4.86255 1.1545,-4.92648 0.23485,-0.28204 38.05894,5.11895 50.88541,7.26605 l 2.79031,0.46709 0.40375,1.57902 c 1.51237,5.91466 3.35332,12.14596 5.34817,18.1026 1.2715,3.79669 2.27229,6.91596 2.22398,6.93172 -0.0483,0.0157 -1.04026,-0.43941 -2.20434,-1.01148 z"
         id="path1499"
         inkscape:connector-curvature="0"
         transform="matrix(0.15036891,0,0,0.15036891,9.9654874,9.1811937)" />
      <path
         style="opacity:0.15800003;fill:#0000ff;fill-opacity:1;stroke:#ff00ff;stroke-width:0.3839716;stroke-miterlimit:4;stroke-dasharray:none;stroke-dashoffset:0;stroke-opacity:1"
         d="m 194.65332,79.795881 c -5.69256,-0.270107 -19.538,-1.409444 -19.64519,-1.616598 -0.15779,-0.304938 -1.31207,-10.414887 -1.2017,-10.525258 0.0778,-0.07784 0.58797,0.209648 1.13362,0.638858 5.07115,3.988967 16.23884,6.415869 27.79449,6.040148 11.35957,-0.369344 19.82002,-2.778334 24.33065,-6.927798 1.26055,-1.159612 1.6916,-1.39709 1.53199,-0.844004 -0.12216,0.423302 -0.52735,3.069424 -0.90043,5.880271 -0.60511,4.559107 -0.76355,5.128727 -1.46807,5.278312 -0.43437,0.09222 -4.13125,0.693022 -8.2153,1.335104 -7.99914,1.257603 -10.67977,1.342631 -23.36006,0.740965 z"
         id="path1501"
         inkscape:connector-curvature="0"
         transform="matrix(0.15036891,0,0,0.15036891,9.9654874,9.1811937)" />
      <path
         style="opacity:0.15800003;fill:#00792e;fill-opacity:1;stroke:#ff00ff;stroke-width:0.3839716;stroke-miterlimit:4;stroke-dasharray:none;stroke-dashoffset:0;stroke-opacity:1"
         d="m 196.96224,73.04207 c -6.60057,-0.353658 -13.98137,-2.004445 -17.9753,-4.020346 -4.64832,-2.346207 -6.07595,-3.961677 -6.07595,-6.875413 0,-4.419173 8.19206,-8.578092 19.75468,-10.028997 4.69247,-0.588821 15.80133,-0.270304 19.88178,0.570057 3.66355,0.754501 7.33477,1.937158 9.87974,3.182688 2.04059,0.99868 4.74342,3.01324 4.74342,3.535516 0,0.160768 -0.86584,0.240511 -1.9241,0.177208 l -1.9241,-0.115097 v 2.296107 c 0,1.274191 0.17127,2.296106 0.38482,2.296106 0.21165,0 0.38482,-0.572994 0.38482,-1.27332 0,-1.465135 0.83008,-2.820783 1.4809,-2.41855 0.24376,0.150651 0.4432,1.042952 0.4432,1.982891 0,1.262546 0.15079,1.708979 0.57723,1.708979 0.42913,0 0.57723,-0.45252 0.57723,-1.763758 0,-2.262894 0.91072,-2.141807 1.07967,0.143551 0.10435,1.411552 -0.0663,1.79045 -1.51326,3.360242 -4.38687,4.759189 -17.3353,7.908642 -29.77478,7.242136 z m 24.43607,-7.827711 c 0.60885,-0.608849 0.76964,-1.282733 0.76964,-3.225606 v -2.455966 l -1.62371,-0.02241 c -2.05626,-0.02838 -2.60931,0.440194 -2.60931,2.210755 0,1.700995 0.55188,2.338765 2.02378,2.338765 0.69979,0 1.00533,0.153513 0.83951,0.421808 -0.14338,0.231995 -0.75969,0.348571 -1.36958,0.259059 -0.71472,-0.104899 -1.10889,0.0073 -1.10889,0.315763 0,1.086714 2.04484,1.191548 3.07856,0.15783 z m -16.16244,-0.57723 c 0,-0.317477 0.25366,-0.57723 0.56369,-0.57723 0.71803,0 1.42763,-1.301155 1.13107,-2.073984 -0.12462,-0.324752 -0.55692,-0.695304 -0.96067,-0.82345 -1.02867,-0.326486 -0.99452,-1.716457 0.0356,-1.447088 0.95126,0.248759 1.03728,-0.583544 0.0962,-0.930761 -0.37039,-0.136658 -0.78134,-0.408936 -0.91323,-0.605064 -0.34406,-0.511671 -2.26154,1.267383 -2.26154,2.098283 0,0.38334 0.34634,0.913274 0.76964,1.17763 0.4233,0.264356 0.76964,0.797 0.76964,1.183653 0,0.527883 -0.19172,0.642155 -0.76964,0.458731 -0.46797,-0.148527 -0.76964,-0.06915 -0.76964,0.202504 0,0.245729 0.34634,0.537349 0.76964,0.648045 0.4233,0.110695 0.76964,0.440822 0.76964,0.733613 0,0.292791 0.17317,0.532348 0.38482,0.532348 0.21165,0 0.38482,-0.259754 0.38482,-0.57723 z m 5.00266,-0.172545 c 0,-0.922707 -1.99863,-6.561805 -2.32566,-6.561805 -0.20244,0 -0.36584,0.216461 -0.36311,0.481025 0.004,0.404709 1.14461,4.354036 1.72242,5.96471 0.20116,0.56077 0.96635,0.652677 0.96635,0.11607 z m 3.63074,-0.39516 c 0.74664,-0.283874 0.9871,-0.647365 0.9871,-1.492161 0,-1.255771 -0.47784,-1.75895 -2.0203,-2.127424 -0.59331,-0.141732 -1.05826,-0.516147 -1.05826,-0.852186 0,-0.455857 0.33819,-0.570246 1.41234,-0.477702 1.6898,0.145584 2.21459,-0.680059 0.67747,-1.065851 -1.49026,-0.374029 -3.02656,0.264492 -3.1776,1.320679 -0.16349,1.143216 0.47676,1.880544 1.90545,2.194335 1.7494,0.384234 1.32681,1.542191 -0.54188,1.484841 -1.59265,-0.04888 -2.03851,0.835256 -0.56439,1.119184 0.47621,0.09172 0.98445,0.190351 1.1294,0.219174 0.14497,0.02882 0.70777,-0.116477 1.25067,-0.322889 z m 3.10361,-2.318445 c 0,-1.299837 -0.17637,-2.111166 -0.48102,-2.212715 -0.35016,-0.116717 -0.48103,0.4853 -0.48103,2.212715 0,1.727414 0.13087,2.329432 0.48103,2.212715 0.30465,-0.10155 0.48102,-0.912879 0.48102,-2.212715 z m 0.10422,-3.391227 c 0.0838,-0.251335 -0.12185,-0.456973 -0.45697,-0.456973 -0.33511,0 -0.6093,0.274184 -0.6093,0.609298 0,0.679564 0.82843,0.561218 1.06627,-0.152325 z"
         id="path1503"
         inkscape:connector-curvature="0"
         transform="matrix(0.15036891,0,0,0.15036891,9.9654874,9.1811937)" />
      <path
         style="opacity:0.15800003;fill:#00792e;fill-opacity:1;stroke:#ff00ff;stroke-width:0.3839716;stroke-miterlimit:4;stroke-dasharray:none;stroke-dashoffset:0;stroke-opacity:1"
         d="m 190.03548,162.69054 c -7.98399,-0.42387 -18.44886,-2.13025 -22.2479,-3.62769 -4.7226,-1.86148 -4.89538,-3.416 -0.59131,-5.31989 13.69674,-6.05872 60.53401,-5.13664 67.97827,1.33828 1.35947,1.18245 0.93595,1.94303 -1.86629,3.3516 -6.62754,3.33138 -25.58565,5.19671 -43.27277,4.2577 z m 26.73145,-3.5548 c 0.2191,-0.40939 0.39836,-1.79474 0.39836,-3.07856 0,-2.0445 -0.0916,-2.33422 -0.73816,-2.33422 -0.406,0 -0.9987,-0.1 -1.31712,-0.22216 -0.85094,-0.32654 -2.17774,1.1988 -2.17774,2.5036 0,1.44258 0.99753,2.45612 2.1925,2.22769 0.57057,-0.10907 0.85901,-0.0127 0.7641,0.25537 -0.0838,0.23681 -0.6968,0.40504 -1.36212,0.37383 -0.80632,-0.0378 -1.20966,0.12257 -1.20966,0.48103 0,0.88793 2.9589,0.71076 3.44984,-0.20658 z m -14.60962,-2.49376 c 0,-0.33197 -0.34634,-0.81987 -0.76964,-1.08422 -0.90936,-0.56791 -1.07397,-1.92742 -0.19241,-1.58914 0.36552,0.14026 0.57723,-0.005 0.57723,-0.3969 0,-0.34012 -0.19737,-0.6184 -0.4386,-0.6184 -0.24123,0 -0.66865,-0.30304 -0.94981,-0.67343 -0.48687,-0.64137 -0.5118,-0.64137 -0.52345,0 -0.007,0.37039 -0.25079,0.67343 -0.54235,0.67343 -1.5122,0 -1.69643,2.42375 -0.21985,2.8924 0.41248,0.13092 0.74996,0.56841 0.74996,0.97221 0,0.62412 -0.14422,0.67935 -0.96205,0.36841 -0.7532,-0.28636 -0.96205,-0.24412 -0.96205,0.19461 0,0.3082 0.43292,0.66903 0.96205,0.80183 0.52913,0.1328 0.96205,0.49576 0.96205,0.80657 0,0.36598 0.40682,0.15829 1.15446,-0.58934 0.63495,-0.63496 1.15446,-1.42607 1.15446,-1.75803 z m 2.85834,0.64057 c -0.31253,-1.00534 -0.77309,-2.56387 -1.02346,-3.46338 -0.25038,-0.89952 -0.67906,-1.63549 -0.95264,-1.63549 -0.65112,0 -0.65815,-0.051 0.50999,3.69567 0.60295,1.93388 1.21354,3.23109 1.52087,3.23109 0.42039,0 0.41046,-0.33134 -0.0548,-1.82789 z m 4.61816,0.45354 c 1.10571,-1.10571 0.43458,-2.66584 -1.31177,-3.04941 -0.63428,-0.13931 -1.264,-0.4325 -1.39937,-0.65153 -0.37939,-0.61386 0.69409,-1.10576 1.87279,-0.85816 0.80161,0.16839 1.05825,0.0749 1.05825,-0.3855 0,-0.99285 -3.31129,-0.84139 -3.85598,0.17637 -0.62265,1.16343 -0.0979,2.29248 1.18456,2.54898 1.49539,0.29908 2.08883,1.03521 1.33733,1.65889 -0.42678,0.3542 -0.87199,0.37242 -1.73643,0.0711 -0.89946,-0.31355 -1.1625,-0.29368 -1.1625,0.0878 0,0.2712 0.11545,0.60853 0.25655,0.74963 0.49719,0.49719 3.15781,0.25059 3.75657,-0.34817 z m 2.52882,-1.70421 c 0,-1.79582 -0.12827,-2.30892 -0.57723,-2.30892 -0.44896,0 -0.57723,0.5131 -0.57723,2.30892 0,1.79583 0.12827,2.30892 0.57723,2.30892 0.44896,0 0.57723,-0.51309 0.57723,-2.30892 z m 7.3867,0.48449 c 0.0884,-1.3747 0.2833,-1.85596 0.79073,-1.95232 0.56967,-0.10818 0.67343,0.17292 0.67343,1.82444 0,1.47884 0.13999,1.95231 0.57723,1.95231 0.42817,0 0.57723,-0.4503 0.57723,-1.74376 0,-1.24388 0.17661,-1.81154 0.61607,-1.98018 0.81978,-0.31458 1.29494,0.51773 1.30214,2.28087 0.003,0.79369 0.17906,1.44307 0.39071,1.44307 0.21165,0 0.38482,-0.94382 0.38482,-2.09739 0,-2.30061 -0.64175,-3.07634 -2.09626,-2.53386 -0.43444,0.16203 -1.11511,0.178 -1.51261,0.0355 -0.39749,-0.14252 -1.22005,-0.18613 -1.82789,-0.0969 -1.07349,0.15756 -1.10518,0.22716 -1.10518,2.42745 0,1.71883 0.13415,2.26524 0.55615,2.26524 0.39028,0 0.59112,-0.54411 0.67343,-1.82443 z m 10.31502,-0.0908 c 0,-1.5643 -0.15865,-2.01746 -0.86584,-2.47316 -1.00685,-0.6488 -2.98236,-0.39508 -2.98236,0.38302 0,0.3707 0.32222,0.45831 1.10779,0.30119 0.62992,-0.12598 1.22072,-0.0388 1.36958,0.20203 0.15679,0.25369 -0.0434,0.42359 -0.49909,0.42359 -1.39623,0 -1.97828,0.44613 -1.97828,1.51632 0,1.40034 0.22599,1.56224 2.18065,1.56224 h 1.66755 z m -17.70172,-3.85707 c 0,-0.42757 -0.25655,-0.76964 -0.57723,-0.76964 -0.32068,0 -0.57723,0.34207 -0.57723,0.76964 0,0.42758 0.25655,0.76964 0.57723,0.76964 0.32068,0 0.57723,-0.34206 0.57723,-0.76964 z"
         id="path1505"
         inkscape:connector-curvature="0"
         transform="matrix(0.15036891,0,0,0.15036891,9.9654874,9.1811937)" />
      <text
         xml:space="preserve"
         style="font-style:normal;font-weight:normal;font-size:1.20295131px;line-height:1.25;font-family:sans-serif;letter-spacing:0px;word-spacing:0px;fill:#000000;fill-opacity:1;stroke:none;stroke-width:0.15036891"
         x="46.362549"
         y="25.325474"
         id="text1509"><tspan
           sodipodi:role="line"
           id="tspan1507"
           x="46.362549"
           y="25.325474"
           style="stroke-width:0.15036891">$B $</tspan></text>
      <text
         id="text1513"
         y="24.978285"
         x="39.071564"
         style="font-style:normal;font-weight:normal;font-size:1.20295131px;line-height:1.25;font-family:sans-serif;letter-spacing:0px;word-spacing:0px;fill:#000000;fill-opacity:1;stroke:none;stroke-width:0.15036891"
         xml:space="preserve"><tspan
           style="stroke-width:0.15036891"
           y="24.978285"
           x="39.071564"
           id="tspan1511"
           sodipodi:role="line">$V $</tspan></text>
    </g>
  </g>
</svg>
